<svg xmlns="http://www.w3.org/2000/svg" viewBox="0 0 100 100" class="icon-img" id="sb-document-icon">
    <path fill-rule="evenodd" d="M50 0c27.614 0 50 22.386 50 50s-22.386 50-50 50S0 77.614 0 50 22.386 0 50 0zm19.444 19.444H30.556A5.559 5.559 0 0025 25v50a5.558 5.558 0 005.556 5.556h38.888A5.559 5.559 0 0075 75V25a5.558 5.558 0 00-5.556-5.556zM50 58.334a2.777 2.777 0 01.324 5.537l-.324.018H36.111a2.778 2.778 0 01-.324-5.537l.324-.019H50zm13.889-13.89a2.778 2.778 0 01.324 5.538l-.324.018H36.11a2.778 2.778 0 01-.324-5.537l.324-.019h27.78zm0-13.888a2.777 2.777 0 01.324 5.537l-.324.018H36.11a2.778 2.778 0 01-.324-5.537l.324-.018h27.78z"></path>
</svg>